<svg width="656" height="233" viewBox="0 0 656 233" fill="none" xmlns="http://www.w3.org/2000/svg">
<path d="M73.5 178.181V203.681L147.5 158.681V72.1812L73.5 28.6812L55.5 40.1812L129 83.6812V147.181L73.5 178.181Z" fill="#15CF74"/>
<path d="M19.5 170.681L0 158.681V72.1812L37.5 49.6812L111 94.1812V137.681L73.5 158.681V137.681L92.5 126.181V104.181L37.5 72.1812L19.5 83.6812V170.681Z" fill="#15CF74"/>
<path d="M37.5 94.1812L55.5 104.181V191.681L37.5 180.681V94.1812Z" fill="#15CF74"/>
<path d="M208.606 149V124.008H223.986C238.556 124.008 246.752 113.889 246.752 101.342C246.752 88.8967 238.556 78.1712 223.986 78.1712H192.922V149H208.606ZM208.606 111.663V90.6169H221.962C227.628 90.6169 230.967 94.8666 230.967 101.241C230.967 107.312 227.628 111.663 221.962 111.663H208.606ZM275.782 108.223C280.842 108.223 287.621 110.752 288.633 117.431H262.628C264.551 110.449 270.925 108.223 275.782 108.223ZM292.579 131.596C288.936 135.138 283.573 137.769 278.211 137.769C268.497 137.769 262.628 133.013 262.325 126.537H304.114C304.114 105.896 290.252 95.9796 275.985 95.9796C259.289 95.9796 247.35 108.02 247.35 123.299C247.35 138.072 257.873 150.113 277.098 150.113C284.079 150.113 293.995 147.988 301.281 139.893L292.579 131.596ZM308.891 149H323.967V121.174C323.967 113.99 326.902 108.425 333.883 108.425C340.865 108.425 343.496 113.889 343.496 121.073V149H358.572V120.77C358.572 107.515 354.626 95.9796 340.055 95.9796C333.681 95.9796 328.318 98.1045 323.967 104.176V97.0926H308.891V149ZM366.898 149H381.974V121.174C381.974 113.99 384.908 108.425 391.89 108.425C398.872 108.425 401.503 113.889 401.503 121.073V149H416.579V120.77C416.579 107.515 412.633 95.9796 398.062 95.9796C391.688 95.9796 386.325 98.1045 381.974 104.176V97.0926H366.898V149Z" fill="#15CF74"/>
<path d="M470.937 97.8592C470.937 85.8183 460.313 78.5331 446.046 78.5331L419.435 78.4319V149.362H449.082C464.057 149.362 474.175 141.469 474.175 129.429C474.175 122.143 467.902 114.251 459.402 112.632C467.092 109.9 470.937 103.93 470.937 97.8592ZM443.314 119.209C456.367 119.209 458.289 124.268 458.289 129.125C458.289 133.881 454.343 136.916 449.082 136.916H435.118V119.209H443.314ZM435.118 108.281V90.9787H446.046C450.802 90.9787 455.052 93.4071 455.052 98.5675C455.052 103.222 452.623 108.281 441.594 108.281H435.118ZM492.501 123.256C492.501 115.263 497.155 108.585 505.452 108.585C513.648 108.585 519.416 114.352 519.416 124.066C519.416 133.375 513.243 138.232 505.857 138.232C497.459 138.232 492.501 131.655 492.501 123.256ZM519.011 97.4545V104.537C515.469 99.7817 509.398 96.3414 502.417 96.3414C486.227 96.3414 477.424 108.585 477.424 123.155C477.424 138.333 486.936 150.475 502.72 150.475C510.41 150.475 515.267 147.136 519.011 141.773V149.362H534.087V97.4545H519.011ZM543.012 149.362H558.088V121.536C558.088 114.352 561.023 108.787 568.004 108.787C574.986 108.787 577.617 114.251 577.617 121.435V149.362H592.693V121.131C592.693 107.876 588.747 96.3414 574.177 96.3414C567.802 96.3414 562.439 98.4663 558.088 104.537V97.4545H543.012V149.362ZM615.994 118.501V76.2058H600.918V149.362H615.994V125.786L626.416 142.582C630.565 148.654 635.826 150.475 641.796 150.475C645.843 150.475 650.599 149.564 655.355 145.416L649.688 134.791C647.766 136.107 645.236 136.613 644.123 136.613C641.189 136.613 639.368 135.5 637.04 131.958L630.261 121.131L647.462 99.4781V97.4545H630.767L615.994 118.501Z" fill="#15CF74"/>
</svg>
