<svg width="471" height="233" viewBox="0 0 471 233" fill="none" xmlns="http://www.w3.org/2000/svg">
<path d="M24.1057 149V124.008H39.4856C54.0561 124.008 62.252 113.889 62.252 101.342C62.252 88.8967 54.0561 78.1712 39.4856 78.1712H8.42216V149H24.1057ZM24.1057 111.663V90.6169H37.4619C43.1283 90.6169 46.4673 94.8666 46.4673 101.241C46.4673 107.312 43.1283 111.663 37.4619 111.663H24.1057ZM91.2823 108.223C96.3415 108.223 103.121 110.752 104.133 117.431H78.1284C80.0509 110.449 86.4255 108.223 91.2823 108.223ZM108.079 131.596C104.436 135.138 99.0735 137.769 93.7107 137.769C83.9971 137.769 78.1284 133.013 77.8249 126.537H119.614C119.614 105.896 105.752 95.9796 91.4847 95.9796C74.7893 95.9796 62.8496 108.02 62.8496 123.299C62.8496 138.072 73.3728 150.113 92.5977 150.113C99.5794 150.113 109.495 147.988 116.781 139.893L108.079 131.596ZM124.391 149H139.467V121.174C139.467 113.99 142.402 108.425 149.383 108.425C156.365 108.425 158.996 113.889 158.996 121.073V149H174.072V120.77C174.072 107.515 170.126 95.9796 155.555 95.9796C149.181 95.9796 143.818 98.1045 139.467 104.176V97.0926H124.391V149ZM182.398 149H197.474V121.174C197.474 113.99 200.408 108.425 207.39 108.425C214.372 108.425 217.003 113.889 217.003 121.073V149H232.079V120.77C232.079 107.515 228.133 95.9796 213.562 95.9796C207.188 95.9796 201.825 98.1045 197.474 104.176V97.0926H182.398V149Z" fill="black"/>
<path d="M286.437 97.8592C286.437 85.8183 275.813 78.5331 261.546 78.5331L234.935 78.4319V149.362H264.582C279.557 149.362 289.675 141.469 289.675 129.429C289.675 122.143 283.402 114.251 274.902 112.632C282.592 109.9 286.437 103.93 286.437 97.8592ZM258.814 119.209C271.867 119.209 273.789 124.268 273.789 129.125C273.789 133.881 269.843 136.916 264.582 136.916H250.618V119.209H258.814ZM250.618 108.281V90.9787H261.546C266.302 90.9787 270.552 93.4071 270.552 98.5675C270.552 103.222 268.123 108.281 257.094 108.281H250.618ZM308.001 123.256C308.001 115.263 312.655 108.585 320.952 108.585C329.148 108.585 334.916 114.352 334.916 124.066C334.916 133.375 328.743 138.232 321.357 138.232C312.959 138.232 308.001 131.655 308.001 123.256ZM334.511 97.4545V104.537C330.969 99.7817 324.898 96.3414 317.917 96.3414C301.727 96.3414 292.924 108.585 292.924 123.155C292.924 138.333 302.436 150.475 318.22 150.475C325.91 150.475 330.767 147.136 334.511 141.773V149.362H349.587V97.4545H334.511ZM358.512 149.362H373.588V121.536C373.588 114.352 376.523 108.787 383.504 108.787C390.486 108.787 393.117 114.251 393.117 121.435V149.362H408.193V121.131C408.193 107.876 404.247 96.3414 389.677 96.3414C383.302 96.3414 377.939 98.4663 373.588 104.537V97.4545H358.512V149.362ZM431.494 118.501V76.2058H416.418V149.362H431.494V125.786L441.916 142.582C446.065 148.654 451.326 150.475 457.296 150.475C461.343 150.475 466.099 149.564 470.855 145.416L465.188 134.791C463.266 136.107 460.736 136.613 459.623 136.613C456.689 136.613 454.868 135.5 452.54 131.958L445.761 121.131L462.962 99.4781V97.4545H446.267L431.494 118.501Z" fill="black"/>
</svg>
