<svg width="287" height="284" viewBox="0 0 287 284" fill="none" xmlns="http://www.w3.org/2000/svg">
<path d="M122 104.5V89L107 79V37.5L142.5 17.5L180 38.5L179 79L151 95V58H135V123H151V113.5L195 88L194 28L142.5 0L92 29V88L122 104.5Z" fill="black"/>
<path d="M24.9544 197V173.835H39.2708C54.2832 173.835 62.6344 163.694 62.6344 150.969C62.6344 138.243 54.3826 127.406 39.2708 127.406H7.35706V197H24.9544ZM24.9544 159.916V141.921H37.183C41.8557 141.921 44.9377 145.898 44.9377 151.068C44.9377 155.94 41.8557 159.916 37.183 159.916H24.9544ZM91.8242 198.094C100.175 198.094 109.024 195.807 115.884 188.549C114.591 187.257 108.825 180.198 107.433 178.806C103.059 182.485 98.3859 184.374 93.3155 184.374C83.5724 184.374 78.3032 179.104 78.0049 174.432H117.673C117.773 173.736 117.773 172.94 117.773 172.244C117.773 154.051 105.942 144.407 90.3329 144.407C72.5368 144.407 61.6006 156.735 61.6006 171.449C61.6006 186.163 72.7356 198.094 91.8242 198.094ZM90.2335 157.133C95.3039 157.133 101.17 159.419 101.667 165.285H78.2037C79.2973 159.32 85.362 157.133 90.2335 157.133ZM120.973 197H138.073V169.162C138.073 163.297 140.26 158.127 146.325 158.127C152.588 158.127 154.477 164.191 154.477 169.162V197H171.578V168.168C171.578 156.934 168.396 144.407 153.384 144.407C146.723 144.407 141.752 146.694 138.073 152.261V145.501H120.973V197ZM177.46 197H194.56V169.162C194.56 163.297 196.747 158.127 202.812 158.127C209.075 158.127 210.964 164.191 210.964 169.162V197H228.064V168.168C228.064 156.934 224.883 144.407 209.87 144.407C203.209 144.407 198.238 146.694 194.56 152.261V145.501H177.46V197ZM248.302 192.427L236.67 218.773H253.87L286.579 145.501H268.186L256.852 175.326L246.016 145.501H227.027L248.302 192.427ZM2.08781 207.406V221.921H21.077V277H38.6743V221.921H57.9617V207.406H2.08781ZM70.31 225.501H53.8063V277H70.9065V251.25C70.9065 244.887 74.8833 240.712 81.6438 240.712C83.1351 240.712 85.8194 240.712 88.1061 241.408V224.705C86.416 224.407 86.2171 224.407 84.6264 224.407C80.9479 224.407 71.9007 226.793 70.31 236.536V225.501ZM116.757 278.094C125.108 278.094 133.956 275.807 140.816 268.549C139.524 267.257 133.758 260.198 132.366 258.806C127.991 262.485 123.319 264.374 118.248 264.374C108.505 264.374 103.236 259.104 102.937 254.432H142.606C142.705 253.736 142.705 252.94 142.705 252.244C142.705 234.051 130.874 224.407 115.266 224.407C97.4694 224.407 86.5332 236.735 86.5332 251.449C86.5332 266.163 97.6682 278.094 116.757 278.094ZM115.166 237.133C120.237 237.133 126.102 239.419 126.599 245.285H103.136C104.23 239.32 110.295 237.133 115.166 237.133ZM173.146 278.094C181.498 278.094 190.346 275.807 197.206 268.549C195.914 267.257 190.147 260.198 188.755 258.806C184.381 262.485 179.708 264.374 174.638 264.374C164.895 264.374 159.625 259.104 159.327 254.432H198.996C199.095 253.736 199.095 252.94 199.095 252.244C199.095 234.051 187.264 224.407 171.655 224.407C153.859 224.407 142.923 236.735 142.923 251.449C142.923 266.163 154.058 278.094 173.146 278.094ZM171.556 237.133C176.626 237.133 182.492 239.419 182.989 245.285H159.526C160.62 239.32 166.684 237.133 171.556 237.133Z" fill="black"/>
</svg>
