<svg width="285" height="152" viewBox="0 0 285 152" fill="none" xmlns="http://www.w3.org/2000/svg">
<path d="M22.9544 70V46.8352H37.2708C52.2832 46.8352 60.6344 36.6944 60.6344 23.9687C60.6344 11.2429 52.3826 0.406173 37.2708 0.406173H5.35706V70H22.9544ZM22.9544 32.9164V14.9215H35.183C39.8557 14.9215 42.9377 18.8983 42.9377 24.0681C42.9377 28.9396 39.8557 32.9164 35.183 32.9164H22.9544ZM89.8242 71.0936C98.1755 71.0936 107.024 68.807 113.884 61.5493C112.591 60.2569 106.825 53.1981 105.433 51.8062C101.059 55.4847 96.3859 57.3737 91.3155 57.3737C81.5724 57.3737 76.3032 52.1044 76.0049 47.4317H115.673C115.773 46.7358 115.773 45.9404 115.773 45.2445C115.773 27.0507 103.942 17.4069 88.3329 17.4069C70.5368 17.4069 59.6006 29.735 59.6006 44.4491C59.6006 59.1632 70.7356 71.0936 89.8242 71.0936ZM88.2335 30.1327C93.3039 30.1327 99.1697 32.4193 99.6668 38.2851H76.2037C77.2973 32.3199 83.362 30.1327 88.2335 30.1327ZM118.973 70H136.073V42.1625C136.073 36.2967 138.26 31.1269 144.325 31.1269C150.588 31.1269 152.477 37.1915 152.477 42.1625V70H169.578V41.1683C169.578 29.9338 166.396 17.4069 151.384 17.4069C144.723 17.4069 139.752 19.6936 136.073 25.2611V18.5006H118.973V70ZM175.46 70H192.56V42.1625C192.56 36.2967 194.747 31.1269 200.812 31.1269C207.075 31.1269 208.964 37.1915 208.964 42.1625V70H226.064V41.1683C226.064 29.9338 222.883 17.4069 207.87 17.4069C201.209 17.4069 196.238 19.6936 192.56 25.2611V18.5006H175.46V70ZM246.302 65.4267L234.67 91.7729H251.87L284.579 18.5006H266.186L254.852 48.3265L244.016 18.5006H225.027L246.302 65.4267ZM0.0878148 80.4062V94.9215H19.077V150H36.6743V94.9215H55.9617V80.4062H0.0878148ZM68.31 98.5006H51.8063V150H68.9065V124.25C68.9065 117.887 72.8833 113.712 79.6438 113.712C81.1351 113.712 83.8194 113.712 86.1061 114.408V97.7052C84.416 97.4069 84.2171 97.4069 82.6264 97.4069C78.9479 97.4069 69.9007 99.793 68.31 109.536V98.5006ZM114.757 151.094C123.108 151.094 131.956 148.807 138.816 141.549C137.524 140.257 131.758 133.198 130.366 131.806C125.991 135.485 121.319 137.374 116.248 137.374C106.505 137.374 101.236 132.104 100.937 127.432H140.606C140.705 126.736 140.705 125.94 140.705 125.244C140.705 107.051 128.874 97.4069 113.266 97.4069C95.4694 97.4069 84.5332 109.735 84.5332 124.449C84.5332 139.163 95.6682 151.094 114.757 151.094ZM113.166 110.133C118.237 110.133 124.102 112.419 124.599 118.285H101.136C102.23 112.32 108.295 110.133 113.166 110.133ZM171.146 151.094C179.498 151.094 188.346 148.807 195.206 141.549C193.914 140.257 188.147 133.198 186.755 131.806C182.381 135.485 177.708 137.374 172.638 137.374C162.895 137.374 157.625 132.104 157.327 127.432H196.996C197.095 126.736 197.095 125.94 197.095 125.244C197.095 107.051 185.264 97.4069 169.655 97.4069C151.859 97.4069 140.923 109.735 140.923 124.449C140.923 139.163 152.058 151.094 171.146 151.094ZM169.556 110.133C174.626 110.133 180.492 112.419 180.989 118.285H157.526C158.62 112.32 164.684 110.133 169.556 110.133Z" fill="white"/>
</svg>
